<?xml version="1.0" standalone="no"?>
<!DOCTYPE svg PUBLIC "-//W3C//DTD SVG 20010904//EN"
 "http://www.w3.org/TR/2001/REC-SVG-20010904/DTD/svg10.dtd">
<svg version="1.0" xmlns="http://www.w3.org/2000/svg"
 width="512.000000pt" height="512.000000pt" viewBox="0 0 512.000000 512.000000"
 preserveAspectRatio="xMidYMid meet">

<g transform="translate(0.000000,512.000000) scale(0.100000,-0.100000)"
fill="#000000" stroke="none">
<path d="M2321 5110 c-497 -48 -990 -251 -1376 -565 -114 -92 -294 -274 -384
-387 -229 -287 -417 -675 -495 -1023 -49 -218 -60 -325 -60 -575 0 -250 11
-357 60 -575 79 -355 272 -749 509 -1040 92 -114 274 -294 387 -384 287 -229
675 -417 1023 -495 218 -49 325 -60 575 -60 250 0 357 11 575 60 261 58 603
204 828 353 389 259 688 599 893 1016 125 255 196 484 241 775 24 161 24 539
0 700 -45 291 -116 520 -241 775 -134 272 -283 480 -498 692 -211 209 -404
346 -673 478 -252 124 -486 197 -765 240 -126 19 -468 27 -599 15z m594 -339
c240 -40 419 -98 640 -206 570 -280 1011 -818 1170 -1431 54 -207 69 -331 69
-574 0 -243 -15 -367 -69 -574 -159 -613 -600 -1151 -1170 -1431 -221 -108
-397 -165 -645 -207 -180 -31 -520 -31 -700 0 -248 42 -424 99 -645 207 -570
280 -1011 818 -1170 1431 -54 207 -69 331 -69 574 0 243 15 367 69 574 55 212
170 470 290 651 382 574 972 932 1660 1005 129 14 434 4 570 -19z"/>
<path d="M2495 3826 c-37 -17 -70 -52 -84 -89 -8 -19 -11 -304 -11 -890 l0
-862 -342 342 c-189 188 -356 347 -371 353 -132 49 -259 -84 -203 -213 18 -41
952 -973 989 -987 36 -13 138 -13 174 0 32 12 966 940 989 982 8 15 14 46 14
69 0 114 -118 191 -223 145 -18 -8 -182 -164 -367 -350 l-335 -336 -5 874 c-5
864 -5 875 -26 902 -11 15 -32 37 -46 47 -34 25 -113 32 -153 13z"/>
</g>
</svg>
