<?xml version="1.0" standalone="no"?>
<!DOCTYPE svg PUBLIC "-//W3C//DTD SVG 20010904//EN"
 "http://www.w3.org/TR/2001/REC-SVG-20010904/DTD/svg10.dtd">
<svg version="1.0" xmlns="http://www.w3.org/2000/svg"
 width="512.000000pt" height="512.000000pt" viewBox="0 0 512.000000 512.000000"
 preserveAspectRatio="xMidYMid meet">

<g transform="translate(0.000000,512.000000) scale(0.100000,-0.100000)"
fill="#000000" stroke="none">
<path d="M2510 4901 c-74 -24 -119 -63 -145 -123 -13 -33 -15 -193 -15 -1405
l0 -1368 -472 472 c-326 325 -485 477 -510 488 -42 17 -124 20 -161 6 -40 -16
-99 -73 -118 -116 -24 -51 -24 -119 0 -170 13 -27 234 -254 692 -712 709 -706
694 -693 779 -693 85 0 70 -13 779 693 458 458 679 685 692 712 24 51 24 119
0 170 -19 43 -78 100 -118 116 -37 14 -119 11 -161 -6 -25 -11 -184 -163 -509
-488 l-473 -472 0 1368 c0 1485 3 1405 -53 1465 -47 51 -149 82 -207 63z"/>
<path d="M368 1698 c-21 -5 -58 -28 -82 -50 -77 -67 -76 -61 -76 -685 0 -384
3 -558 12 -591 16 -64 86 -134 150 -150 35 -9 582 -12 2191 -12 2409 0 2213
-6 2285 75 23 27 44 63 51 90 15 61 15 1109 0 1170 -7 27 -28 63 -51 90 -98
112 -275 88 -342 -46 l-26 -53 0 -448 0 -448 -1920 0 -1920 0 0 449 0 449 -28
53 c-46 89 -149 134 -244 107z"/>
</g>
</svg>
