<?xml version="1.0" standalone="no"?>
<!DOCTYPE svg PUBLIC "-//W3C//DTD SVG 20010904//EN"
 "http://www.w3.org/TR/2001/REC-SVG-20010904/DTD/svg10.dtd">
<svg version="1.0" xmlns="http://www.w3.org/2000/svg"
 width="512.000000pt" height="512.000000pt" viewBox="0 0 512.000000 512.000000"
 preserveAspectRatio="xMidYMid meet">

<g transform="translate(0.000000,512.000000) scale(0.100000,-0.100000)"
fill="#000000" stroke="none">
<path d="M2463 4974 c-32 -12 -309 -259 -1226 -1094 -1313 -1196 -1232 -1115
-1232 -1245 1 -108 57 -194 155 -239 40 -18 70 -21 258 -24 l212 -4 0 -1062
c0 -1184 -5 -1104 69 -1153 l34 -23 677 0 677 0 34 23 c72 48 69 17 69 745 l0
652 370 0 370 0 0 -652 c0 -728 -3 -697 69 -745 l34 -23 677 0 677 0 34 23
c74 49 69 -31 69 1154 l0 1061 213 4 c188 3 217 6 257 24 99 45 154 131 155
239 0 117 -13 135 -281 378 l-234 212 0 670 c0 747 3 714 -69 762 l-34 23
-566 0 c-543 0 -567 -1 -598 -20 -48 -29 -66 -64 -72 -140 l-6 -67 -278 253
c-300 272 -319 285 -421 283 -28 0 -70 -7 -93 -15z m479 -645 c205 -187 389
-348 408 -356 71 -31 168 5 196 73 10 23 14 78 14 184 l0 150 370 0 370 0 0
-626 c0 -537 2 -630 15 -658 8 -17 109 -117 224 -221 l209 -190 -222 -5 c-127
-3 -232 -10 -246 -17 -32 -14 -66 -51 -79 -86 -8 -19 -11 -362 -11 -1088 l0
-1059 -480 0 -480 0 0 653 c0 720 2 693 -63 741 -28 21 -38 21 -607 21 -569 0
-579 0 -607 -21 -65 -48 -63 -21 -63 -741 l0 -653 -480 0 -480 0 0 1059 c0
726 -3 1069 -11 1088 -13 35 -47 72 -79 86 -14 7 -119 14 -246 17 l-221 5
1089 993 c599 545 1093 992 1098 992 5 0 177 -153 382 -341z"/>
</g>
</svg>
