<?xml version="1.0" standalone="no"?>
<!DOCTYPE svg PUBLIC "-//W3C//DTD SVG 20010904//EN"
 "http://www.w3.org/TR/2001/REC-SVG-20010904/DTD/svg10.dtd">
<svg version="1.0" xmlns="http://www.w3.org/2000/svg"
 width="512.000000pt" height="512.000000pt" viewBox="0 0 512.000000 512.000000"
 preserveAspectRatio="xMidYMid meet">

<g transform="translate(0.000000,512.000000) scale(0.100000,-0.100000)"
fill="#000000" stroke="none">
<path d="M460 5102 c-168 -44 -298 -179 -336 -349 -12 -55 -15 -113 -12 -255
3 -178 4 -184 30 -229 15 -25 46 -59 70 -75 38 -25 54 -29 130 -32 l88 -4 2
-1906 3 -1907 22 -41 c30 -56 94 -109 148 -123 31 -8 437 -11 1373 -11 l1330
0 83 -44 c250 -133 529 -160 779 -77 170 57 285 127 418 255 188 180 309 399
377 678 39 160 47 290 43 713 -3 386 -3 391 -27 443 -31 68 -114 145 -180 167
-56 18 -158 21 -211 5 -47 -14 -44 -15 -58 25 -18 47 -93 122 -147 146 l-45
20 0 1102 c0 1205 2 1159 -58 1271 -60 113 -195 213 -321 236 -35 6 -651 10
-1745 9 -1558 0 -1696 -1 -1756 -17z m2996 -224 c-46 -80 -56 -138 -56 -319 0
-92 -3 -174 -6 -183 -5 -14 -56 -16 -468 -16 -276 0 -475 -4 -497 -10 -52 -15
-74 -43 -74 -97 0 -37 5 -49 28 -69 l28 -24 505 0 c550 0 546 0 607 58 64 60
71 87 77 312 5 202 5 206 33 253 117 199 409 172 492 -46 14 -37 15 -161 13
-1142 -3 -1009 -4 -1100 -19 -1103 -11 -2 -24 12 -38 42 -25 51 -81 105 -143
138 -35 18 -59 22 -133 23 -49 0 -100 -4 -112 -8 l-22 -8 -3 333 -3 333 -28
57 c-38 77 -103 133 -185 158 -78 24 -121 25 -192 4 -69 -20 -133 -64 -171
-117 -60 -83 -59 -62 -59 -961 l0 -821 -145 152 c-169 177 -211 203 -328 211
-95 5 -167 -21 -241 -89 -97 -89 -142 -197 -134 -324 8 -121 31 -156 423 -660
197 -253 380 -486 406 -517 27 -31 49 -59 49 -62 0 -3 -542 -6 -1205 -6 -1181
0 -1204 0 -1215 19 -7 14 -9 613 -8 1893 l3 1873 483 5 484 5 24 28 c41 48 27
117 -29 149 -17 10 -172 14 -652 18 l-630 5 0 180 c0 156 2 185 19 215 36 69
107 130 176 151 14 4 688 8 1498 8 l1473 1 -25 -42z m-51 -1512 c68 -29 65 7
65 -824 l0 -749 23 -33 c38 -58 104 -64 153 -15 l24 24 0 310 c0 344 5 378 61
406 37 19 92 19 130 -1 55 -28 59 -52 59 -388 0 -207 4 -313 11 -330 15 -33
71 -59 108 -51 16 3 39 17 52 31 24 25 24 30 29 257 3 160 9 239 18 254 20 36
53 53 105 53 42 0 54 -5 83 -34 l34 -34 0 -216 c0 -246 6 -275 63 -302 39 -19
72 -14 108 15 23 18 24 27 29 158 7 155 19 192 70 213 41 17 96 15 127 -6 50
-32 53 -55 53 -449 0 -390 -8 -505 -45 -649 -54 -214 -141 -378 -274 -518
-334 -352 -791 -381 -1171 -74 -99 81 -151 142 -553 659 -275 354 -368 479
-377 512 -42 150 98 298 215 227 17 -10 101 -95 188 -189 193 -207 232 -238
304 -238 43 0 57 5 81 28 17 17 35 48 41 72 8 30 11 320 11 925 0 970 -3 921
62 953 41 20 69 21 113 3z"/>
<path d="M1933 4326 c-23 -20 -28 -32 -28 -71 0 -39 5 -51 28 -71 64 -55 167
-11 167 71 0 82 -103 126 -167 71z"/>
<path d="M1150 3787 c-46 -15 -106 -77 -119 -124 -15 -53 -14 -460 1 -504 17
-50 45 -83 91 -110 41 -23 47 -24 287 -24 273 0 278 1 338 69 48 55 54 93 50
340 -3 220 -3 221 -30 268 -21 34 -41 53 -80 72 -52 26 -54 26 -277 25 -134
-1 -240 -6 -261 -12z m448 -374 l-3 -188 -185 0 -185 0 -3 188 -2 187 190 0
190 0 -2 -187z"/>
<path d="M2075 3789 c-62 -35 -74 -111 -26 -160 l29 -29 431 0 c300 0 438 3
455 11 33 15 59 71 51 108 -3 16 -17 39 -31 52 l-26 24 -431 2 c-304 2 -438
-1 -452 -8z"/>
<path d="M2049 3191 c-40 -40 -40 -89 0 -133 l29 -33 329 -3 c374 -3 395 0
427 59 23 42 17 79 -19 115 l-24 24 -356 0 -357 0 -29 -29z"/>
<path d="M1074 2639 c-60 -30 -67 -117 -13 -163 l31 -26 793 0 793 0 31 26
c56 47 47 134 -16 163 -32 15 -1589 14 -1619 0z"/>
<path d="M1090 2073 c-52 -19 -83 -89 -60 -134 31 -61 14 -59 502 -59 l446 0
31 26 c25 21 31 33 31 66 0 50 -13 74 -50 93 -25 13 -94 15 -457 14 -235 0
-435 -3 -443 -6z"/>
<path d="M1055 1476 c-47 -47 -43 -112 9 -150 26 -20 42 -21 406 -24 429 -3
439 -2 466 63 12 29 13 44 4 70 -22 66 -16 65 -460 65 l-401 0 -24 -24z"/>
<path d="M1053 895 c-32 -32 -35 -40 -30 -73 4 -24 17 -47 37 -64 l30 -28 558
0 c424 0 563 3 582 13 14 7 33 29 43 49 16 33 16 40 4 71 -30 70 1 67 -625 67
l-564 0 -35 -35z"/>
</g>
</svg>
